<svg xmlns="http://www.w3.org/2000/svg" width="1920" height="246" viewBox="0 0 1920 246">
  <defs>
    <style>
      .cls-1 {
        fill-rule: evenodd;
      }
    </style>
  </defs>
  <path id="Rectangle_819_copy" data-name="Rectangle 819 copy" class="cls-1" d="M0,794S68.5,927.671,171.935,927.671C267.6,927.671,347.673,744,494,744c141.6,0,302.074,180.07,449.114,180.07C1059.65,924.069,1179.09,754,1310,754c130.03,0,219.58,241.755,321.33,160.961C1848.54,742.494,1920,1094,1920,1094V250S1674.74,62,1435,62c-226.98,0-430.9,183.85-592.307,183.85C581.977,245.848,742.593,0,488,0,200.787,0,0,180,0,180V794Z"/>
</svg>
