<svg xmlns="http://www.w3.org/2000/svg" width="1920" height="186" viewBox="0 0 1920 186">
  <defs>
    <style>
      .cls-1 {
        fill-rule: evenodd;
      }
    </style>
  </defs>
  <path class="cls-1" d="M0-324S145.8-564,484-564c403.907,0,412.173,130,656,130,244.09,0,260.69-167,437.3-167,210.59,0,342.7,287,342.7,287V30s-46.74-49.47-96-15c-75.88,53.093-78.58,171.189-248.71,171.189-149.24,0-237.35-152.039-442.6-152.039C897.305,34.149,813.093,140,608,140,441.007,140,384.665,0,240,0,72.945,0,0,170,0,170V-324Z"/>
</svg>
