<svg xmlns="http://www.w3.org/2000/svg" width="1920" height="177" viewBox="0 0 1920 177">
  <defs>
    <style>
      .cls-1 {
        fill-rule: evenodd;
      }
    </style>
  </defs>
  <path id="Rectangle_819_copy_4" data-name="Rectangle 819 copy 4" class="cls-1" d="M0,734S68.5,797.67,171.935,797.67C267.6,797.67,347.673,684,494,684c141.6,0,302.074,180.069,449.114,180.069C1059.65,864.067,1179.09,694,1310,694c130.03,0,219.58,241.754,321.33,160.96C1848.54,682.494,1920,1034,1920,1034V0s-245.06,135.848-547.31,135.848C1137.3,135.847,1082.59,30,828,30,566.007,30,494.165,177,264,177,101.445,177,0,40,0,40V734Z"/>
</svg>
