<svg xmlns="http://www.w3.org/2000/svg" width="1920" height="141" viewBox="0 0 1920 141">
  <defs>
    <style>
      .cls-1 {
        fill-rule: evenodd;
      }
    </style>
  </defs>
  <path id="Rectangle_819_copy_2" data-name="Rectangle 819 copy 2" class="cls-1" d="M1920,0S1851.5,133.67,1748.07,133.67C1652.4,133.67,1572.33,0,1426,0c-141.6,0-302.07,130.071-449.114,130.071C860.348,130.069,740.907,10,610,10,479.967,10,390.422,201.754,288.666,120.959,71.455-51.506,0,130,0,130V-714s245.062,155.85,547.307,155.85C782.7-558.152,957.406-724,1212-724c261.99,0,157.84,260,388,260,162.55,0,320-280,320-280V0Z"/>
</svg>
