<svg xmlns="http://www.w3.org/2000/svg" width="1920" height="257" viewBox="0 0 1920 257">
  <defs>
    <style>
      .cls-1 {
        fill-rule: evenodd;
      }
    </style>
  </defs>
  <path id="Rectangle_819_copy" data-name="Rectangle 819 copy" class="cls-1" d="M0-2907s68.5-133.67,171.935-133.67C267.6-3040.67,347.673-2857,494-2857c141.6,0,302.074-180.07,449.114-180.07C1059.65-3037.07,1179.09-2867,1310-2867c130.03,0,219.58-241.76,321.33-160.96C1848.54-2855.5,1920-3207,1920-3207V177S1729.94-16.063,1502.69,1.148C1267.98,18.927,1061.31,289.922,758,97,592.993-7.958,441.665,257,300,257,134.445,257,0,157,0,157V-2907Z"/>
</svg>
