<svg xmlns="http://www.w3.org/2000/svg" width="1920" height="350" viewBox="0 0 1920 350">
  <defs>
    <style>
      .cls-1 {
        fill-rule: evenodd;
      }
    </style>
  </defs>
  <path id="Rectangle_819_copy" data-name="Rectangle 819 copy" class="cls-1" d="M0,50S68.5,183.671,171.935,183.671C267.6,183.671,347.673,0,494,0c141.6,0,302.074,180.07,449.114,180.07C1059.65,180.069,1179.09,10,1310,10c130.03,0,219.58,241.755,321.33,160.961C1848.54-1.506,1920,350,1920,350V-494s-245.26-188-485-188c-226.98,0-430.9,183.85-592.307,183.85C581.977-498.152,742.593-744,488-744,200.787-744,0-564,0-564V50Z"/>
</svg>
