<svg xmlns="http://www.w3.org/2000/svg" width="1920" height="137" viewBox="0 0 1920 137">
  <defs>
    <style>
      .cls-1 {
        fill-rule: evenodd;
      }
    </style>
  </defs>
  <path id="Rectangle_819_copy_5" data-name="Rectangle 819 copy 5" class="cls-1" d="M1920,694s-68.5,63.67-171.93,63.67C1652.4,757.669,1572.33,644,1426,644c-141.6,0-302.07,180.071-449.114,180.071C860.348,824.068,740.907,654,610,654c-130.033,0-219.578,241.755-321.334,160.961C71.455,642.493,0,994,0,994V130S94.372,29.433,230.142,20.056c108.335-7.483,203.027,75.79,337.165,75.79C744.7,95.847,807.406,30,1062,30c261.99,0,363.84,107,594,107,162.55,0,264-137,264-137V694Z"/>
</svg>
