<svg xmlns="http://www.w3.org/2000/svg" width="1920" height="287" viewBox="0 0 1920 287">
  <defs>
    <style>
      .cls-1 {
        fill-rule: evenodd;
      }
    </style>
  </defs>
  <path class="cls-1" d="M0,277S145.8,37,484,37c403.907,0,412.173,130,656,130,244.09,0,260.69-167,437.3-167C1787.89,0,1920,287,1920,287V631s-46.74-49.47-96-15c-75.88,53.093-78.58,171.189-248.71,171.189-149.24,0-237.35-152.039-442.6-152.039C897.305,635.149,813.093,741,608,741c-166.993,0-223.335-140-368-140C72.945,601,0,771,0,771V277Z"/>
</svg>
