<svg xmlns="http://www.w3.org/2000/svg" width="1920" height="280" viewBox="0 0 1920 280">
  <defs>
    <style>
      .cls-1 {
        fill-rule: evenodd;
      }
    </style>
  </defs>
  <path id="Rectangle_819_copy_2" data-name="Rectangle 819 copy 2" class="cls-1" d="M1920,784S1851.5,917.67,1748.07,917.67C1652.4,917.67,1572.33,734,1426,734c-141.6,0-302.07,180.07-449.114,180.07C860.348,914.068,740.907,744,610,744,479.967,744,390.422,985.754,288.666,904.96,71.455,732.494,0,1084,0,1084V30S245.062,185.848,547.307,185.848C782.7,185.848,957.406,20,1212,20c261.99,0,157.84,260,388,260,162.55,0,320-280,320-280V784Z"/>
</svg>
