<svg xmlns="http://www.w3.org/2000/svg" width="1920" height="350" viewBox="0 0 1920 350">
  <defs>
    <style>
      .cls-1 {
        fill-rule: evenodd;
      }
    </style>
  </defs>
  <path id="Rectangle_819_copy_2" data-name="Rectangle 819 copy 2" class="cls-1" d="M1920,50S1851.5,183.67,1748.07,183.67C1652.4,183.67,1572.33,0,1426,0c-141.6,0-302.07,180.07-449.114,180.07C860.348,180.068,740.907,10,610,10,479.967,10,390.422,251.754,288.666,170.96,71.455-1.506,0,350,0,350V-704S245.062-548.152,547.307-548.152C782.7-548.152,957.406-714,1212-714c261.99,0,157.84,260,388,260,162.55,0,320-280,320-280V50Z"/>
</svg>
