<svg id="Слой_1" data-name="Слой 1" xmlns="http://www.w3.org/2000/svg" viewBox="0 0 80 80"><defs><style>.cls-1{fill:#424242;}</style></defs><title>book</title><path class="cls-1" d="M73.94,6.06A7.41,7.41,0,0,0,66.67,0H45.93A7.38,7.38,0,0,0,40,3a7.38,7.38,0,0,0-5.93-3H13.33A7.41,7.41,0,0,0,6.06,6.06,7.41,7.41,0,0,0,0,13.33V66.67a7.42,7.42,0,0,0,7.41,7.41H32.59A4.69,4.69,0,0,1,37,78.52,1.48,1.48,0,0,0,38.52,80h3A1.48,1.48,0,0,0,43,78.52a4.69,4.69,0,0,1,4.44-4.44H72.59A7.42,7.42,0,0,0,80,66.67V13.33A7.41,7.41,0,0,0,73.94,6.06ZM45.93,3H66.67a4.45,4.45,0,0,1,4.44,4.44V60.74a4.45,4.45,0,0,1-4.44,4.44H45.93a7.27,7.27,0,0,0-4.44,1.57V7.41A4.45,4.45,0,0,1,45.93,3Zm-37,4.44A4.45,4.45,0,0,1,13.33,3H34.07a4.45,4.45,0,0,1,4.44,4.44V66.76a7.27,7.27,0,0,0-4.44-1.57H13.33a4.45,4.45,0,0,1-4.44-4.44ZM38.52,74.19a7.51,7.51,0,0,0-5.93-3.08H7.41A4.45,4.45,0,0,1,3,66.67V13.33a4.44,4.44,0,0,1,3-4.17V60.74a7.42,7.42,0,0,0,7.41,7.41H34.07a4.69,4.69,0,0,1,4.44,4.44ZM77,66.67a4.45,4.45,0,0,1-4.44,4.44H47.41a7.51,7.51,0,0,0-5.93,3.08v-1.6a4.69,4.69,0,0,1,4.44-4.44H66.67a7.42,7.42,0,0,0,7.41-7.41V9.16a4.44,4.44,0,0,1,3,4.17Z"/></svg>