<svg id="Слой_1" data-name="Слой 1" xmlns="http://www.w3.org/2000/svg" viewBox="0 0 80 80"><defs><style>.cls-1{fill:#424242;}</style></defs><title>calendar</title><path class="cls-1" d="M72.59,7.41H62.22v-3A4.45,4.45,0,0,0,57.78,0H56.3a4.45,4.45,0,0,0-4.44,4.44v3H28.15v-3A4.45,4.45,0,0,0,23.7,0H22.22a4.45,4.45,0,0,0-4.44,4.44v3H7.41A7.42,7.42,0,0,0,0,14.81V72.59A7.42,7.42,0,0,0,7.41,80H72.59A7.42,7.42,0,0,0,80,72.59V14.81A7.42,7.42,0,0,0,72.59,7.41Zm-65.19,3H17.78v3a4.45,4.45,0,0,0,4.44,4.44h4.44a1.48,1.48,0,0,0,0-3H22.22a1.48,1.48,0,0,1-1.48-1.48V4.44A1.48,1.48,0,0,1,22.22,3H23.7a1.48,1.48,0,0,1,1.48,1.48v3a1.48,1.48,0,1,0,0,3H51.85v3a4.45,4.45,0,0,0,4.44,4.44h4.44a1.48,1.48,0,0,0,0-3H56.3a1.48,1.48,0,0,1-1.48-1.48V4.44A1.48,1.48,0,0,1,56.3,3h1.48a1.48,1.48,0,0,1,1.48,1.48v3a1.48,1.48,0,0,0,0,3H72.59A4.45,4.45,0,0,1,77,14.81V26.67H3V14.81A4.45,4.45,0,0,1,7.41,10.37ZM72.59,77H7.41A4.45,4.45,0,0,1,3,72.59v-43H77v43A4.45,4.45,0,0,1,72.59,77Z"/><path class="cls-1" d="M22.81,44.74a1.48,1.48,0,0,0,1.78,2.37l3.56-2.67V65.19a1.48,1.48,0,0,0,3,0V41.48L28.74,40.3Z"/><path class="cls-1" d="M48.63,50.47l-2.7-.07v-6h8.89a1.48,1.48,0,1,0,0-3H43V53.3l5.63.14A5,5,0,1,1,44,60.57a1.48,1.48,0,1,0-2.69,1.24,8,8,0,1,0,7.31-11.33Z"/></svg>