<svg id="Слой_1" data-name="Слой 1" xmlns="http://www.w3.org/2000/svg" viewBox="0 0 80 80"><defs><style>.cls-1{fill:#1a171b;}</style></defs><title>program</title><path class="cls-1" d="M52.93,77.58H6.06a3.64,3.64,0,0,1-3.64-3.64V6.06A3.64,3.64,0,0,1,6.06,2.42H19.4V6.06a6.07,6.07,0,0,0,6.06,6.06H44.85a6.07,6.07,0,0,0,6.06-6.06V2.42H64.24a3.64,3.64,0,0,1,3.64,3.64V33.53a1.21,1.21,0,0,0,2.43,0V6.06A6.07,6.07,0,0,0,64.24,0H6.06A6.07,6.07,0,0,0,0,6.06V73.94A6.07,6.07,0,0,0,6.06,80H52.93a1.21,1.21,0,1,0,0-2.42ZM21.82,2.42H48.49V6.06A3.64,3.64,0,0,1,44.85,9.7H25.46a3.64,3.64,0,0,1-3.64-3.64Z"/><path class="cls-1" d="M46.87,21H38.79a1.21,1.21,0,1,0,0,2.42h8.08a1.21,1.21,0,0,0,0-2.42Z"/><path class="cls-1" d="M17.07,23.44H32.33a1.21,1.21,0,1,0,0-2.42H17.07a1.21,1.21,0,1,0,0,2.42Z"/><path class="cls-1" d="M10.61,21H9a1.21,1.21,0,0,0,0,2.42h1.62a1.21,1.21,0,0,0,0-2.42Z"/><path class="cls-1" d="M46.87,32.33H32.33a1.21,1.21,0,0,0,0,2.43H46.87a1.21,1.21,0,0,0,0-2.43Z"/><path class="cls-1" d="M17.07,34.75h8.79a1.21,1.21,0,1,0,0-2.43H17.07a1.21,1.21,0,1,0,0,2.43Z"/><path class="cls-1" d="M10.61,32.33H9a1.21,1.21,0,0,0,0,2.43h1.62a1.21,1.21,0,0,0,0-2.43Z"/><path class="cls-1" d="M46.87,43.64H38.79a1.21,1.21,0,1,0,0,2.43h8.08a1.21,1.21,0,0,0,0-2.43Z"/><path class="cls-1" d="M32.33,43.64H17.07a1.21,1.21,0,1,0,0,2.43H32.33a1.21,1.21,0,1,0,0-2.43Z"/><path class="cls-1" d="M10.61,43.64H9a1.21,1.21,0,0,0,0,2.43h1.62a1.21,1.21,0,0,0,0-2.43Z"/><path class="cls-1" d="M32.33,55H17.07a1.21,1.21,0,1,0,0,2.42H32.33a1.21,1.21,0,1,0,0-2.42Z"/><path class="cls-1" d="M10.61,55H9a1.21,1.21,0,0,0,0,2.42h1.62a1.21,1.21,0,0,0,0-2.42Z"/><path class="cls-1" d="M32.33,66.27H17.07a1.21,1.21,0,1,0,0,2.42H32.33a1.21,1.21,0,1,0,0-2.42Z"/><path class="cls-1" d="M10.61,66.27H9a1.21,1.21,0,0,0,0,2.42h1.62a1.21,1.21,0,0,0,0-2.42Z"/><path class="cls-1" d="M80,47.43a5.21,5.21,0,0,0-6.4-4.56A5.24,5.24,0,0,0,69,40.06a5.15,5.15,0,0,0-2.59.69A5.33,5.33,0,0,0,61,39.92V25.21c0-2.32-2.15-4.2-4.8-4.2s-4.82,1.88-4.82,4.2V55A22.85,22.85,0,0,0,45,54.63c-5.11.46-8.64,3-8.77,6.23-.11,2.76.51,3.92.63,4.13a1.22,1.22,0,0,0,1.27.56c2.34-.48,6.17-1,7.35-.59,2.73.88,5.4,3.05,7.76,5a19.06,19.06,0,0,0,5.05,3.39v5.48A1.21,1.21,0,0,0,59.56,80H78.79A1.21,1.21,0,0,0,80,78.79v-31A2.7,2.7,0,0,0,80,47.43Zm-2.4,30.14H60.77v-4h16.8Zm0-6.47h-18c-1,0-3-1.63-4.73-3.07-2.52-2.05-5.38-4.37-8.54-5.4a7.41,7.41,0,0,0-2.14-.25A33.8,33.8,0,0,0,38.8,63a9.94,9.94,0,0,1-.09-2c.08-1.94,2.84-3.58,6.56-3.91a20.17,20.17,0,0,1,7,.64,1.22,1.22,0,0,0,1.54-1.17V25.21c0-1,1.1-1.78,2.4-1.78s2.37.81,2.37,1.78V42.35a1.21,1.21,0,0,0,2.18.73,2.86,2.86,0,0,1,4.46,0,1.21,1.21,0,0,0,1.8.16,2.78,2.78,0,0,1,4.62,1.44,1.22,1.22,0,0,0,1.77.81,2.79,2.79,0,0,1,4.13,2.3Z"/></svg>