<svg id="Слой_1" data-name="Слой 1" xmlns="http://www.w3.org/2000/svg" viewBox="0 0 80 80"><defs><style>.cls-1{fill:#424242;}</style></defs><title>discount</title><path class="cls-1" d="M76.55,3.08a9.71,9.71,0,0,0-8.37-3L46.51,2.2A13.92,13.92,0,0,0,39,5.48L3.31,41.21C.49,44,.21,48.35,2.69,50.83L28.28,76.42a5.81,5.81,0,0,0,4.15,1.66,7.47,7.47,0,0,0,5.21-2.24L73.37,40.1a13,13,0,0,0,3.36-6.88l2.21-22.41A9.89,9.89,0,0,0,76.55,3.08Zm-41,70.7a4.53,4.53,0,0,1-3.15,1.38,2.9,2.9,0,0,1-2.09-.81L4.76,48.77c-1.32-1.32-1-3.84.62-5.49l5.83-5.83L41.55,67.8ZM76,10.53,73.83,32.94A10.16,10.16,0,0,1,71.31,38L43.62,65.74,13.27,35.39,41.11,7.54A11.14,11.14,0,0,1,46.79,5.1L68.47,3q.43,0,.85,0A6.71,6.71,0,0,1,74.39,5,7,7,0,0,1,76,10.53Z"/><path class="cls-1" d="M62.44,9.27a7.3,7.3,0,1,0,7.3,7.3A7.31,7.31,0,0,0,62.44,9.27Zm0,11.68a4.38,4.38,0,1,1,4.38-4.38A4.38,4.38,0,0,1,62.44,20.94Z"/></svg>