<svg id="Слой_1" data-name="Слой 1" xmlns="http://www.w3.org/2000/svg" viewBox="0 0 80 80"><title>ebook</title><path d="M27.23,73.54a1.17,1.17,0,0,0,.86-.37,1.2,1.2,0,0,0,.35-.84,1.22,1.22,0,0,0-.35-.86,1.25,1.25,0,0,0-1.71,0,1.21,1.21,0,0,0-.36.86,1.22,1.22,0,0,0,1.21,1.21Z"/><path d="M40.16,73.54A1.21,1.21,0,1,0,39,72.33,1.21,1.21,0,0,0,40.16,73.54Z"/><path d="M53.09,73.54a1.21,1.21,0,0,0,.86-.36,1.24,1.24,0,0,0,.35-.86,1.22,1.22,0,0,0-.35-.86,1.25,1.25,0,0,0-1.71,0,1.22,1.22,0,0,0-.36.86,1.22,1.22,0,0,0,1.21,1.21Z"/><path d="M50.71,9a1.29,1.29,0,0,0,.91-.38A1.32,1.32,0,0,0,52,7.71a1.3,1.3,0,0,0-.38-.91,1.33,1.33,0,0,0-1.83,0,1.3,1.3,0,0,0-.38.91A1.3,1.3,0,0,0,50.71,9Z"/><path d="M34.51,8.89H45.82a1.21,1.21,0,1,0,0-2.42H34.51a1.21,1.21,0,1,0,0,2.42Z"/><path d="M79,12.93H68.85V6.06A6.07,6.07,0,0,0,62.79,0H17.54a6.07,6.07,0,0,0-6.06,6.06v6.87H1.38A1.21,1.21,0,0,0,.16,14.14V56.05a1.21,1.21,0,0,0,1.21,1.21h10.1V73.94A6.07,6.07,0,0,0,17.54,80H62.79a6.07,6.07,0,0,0,6.06-6.06V57.26H79a1.21,1.21,0,0,0,1.21-1.21V14.14A1.21,1.21,0,0,0,79,12.93ZM13.9,6.06a3.64,3.64,0,0,1,3.64-3.64H62.79a3.64,3.64,0,0,1,3.64,3.64v6.87H46.74a7.77,7.77,0,0,0-6.57,3.66,7.77,7.77,0,0,0-6.57-3.66H13.9ZM2.59,54.84V15.35h31A5.37,5.37,0,0,1,39,20.72V57a7.76,7.76,0,0,0-5.36-2.15ZM39,62.63v2H13.9V57.26H33.59A5.37,5.37,0,0,1,39,62.63ZM66.43,73.94a3.64,3.64,0,0,1-3.64,3.64H17.54a3.64,3.64,0,0,1-3.64-3.64V67.07H66.43Zm0-9.29H41.38v-2a5.37,5.37,0,0,1,5.36-5.36H66.43Zm11.31-9.81h-31A7.76,7.76,0,0,0,41.38,57V20.72a5.37,5.37,0,0,1,5.36-5.36h31Z"/><path d="M32.08,24.24H20.45a1.21,1.21,0,1,0,0,2.42H32.08a1.21,1.21,0,1,0,0-2.42Z"/><path d="M9.46,26.67H14a1.21,1.21,0,0,0,0-2.42H9.46a1.21,1.21,0,1,0,0,2.42Z"/><path d="M32.08,33.94H26.91a1.21,1.21,0,1,0,0,2.42h5.17a1.21,1.21,0,1,0,0-2.42Z"/><path d="M21.66,35.15a1.21,1.21,0,0,0-1.21-1.21h-11a1.21,1.21,0,1,0,0,2.42h11A1.21,1.21,0,0,0,21.66,35.15Z"/><path d="M32.08,43.64h-10a1.21,1.21,0,0,0,0,2.43h10a1.21,1.21,0,0,0,0-2.43Z"/><path d="M15.6,43.64H9.46a1.21,1.21,0,0,0,0,2.43H15.6a1.21,1.21,0,0,0,0-2.43Z"/><path d="M65.5,26.67h5.38a1.21,1.21,0,0,0,0-2.42H65.5a1.21,1.21,0,1,0,0,2.42Z"/><path d="M48.25,26.67H59a1.21,1.21,0,1,0,0-2.42H48.25a1.21,1.21,0,1,0,0,2.42Z"/><path d="M61.18,36.37h9.7a1.21,1.21,0,0,0,0-2.42h-9.7a1.21,1.21,0,1,0,0,2.42Z"/><path d="M48.25,36.37h6.46a1.21,1.21,0,1,0,0-2.42H48.25a1.21,1.21,0,1,0,0,2.42Z"/><path d="M48.25,46.07H62.79a1.21,1.21,0,0,0,0-2.43H48.25a1.21,1.21,0,0,0,0,2.43Z"/></svg>