<svg id="Слой_1" data-name="Слой 1" xmlns="http://www.w3.org/2000/svg" viewBox="0 0 80 80"><defs><style>.cls-1{fill:#424242;}</style></defs><title>envelope</title><path class="cls-1" d="M72.59,9H7.41A7.42,7.42,0,0,0,0,16.41V63.81a7.42,7.42,0,0,0,7.41,7.41H72.59A7.42,7.42,0,0,0,80,63.81V16.41A7.42,7.42,0,0,0,72.59,9ZM77,63.81a4.45,4.45,0,0,1-4.44,4.44H7.41A4.45,4.45,0,0,1,3,63.81V16.41A4.45,4.45,0,0,1,7.41,12H72.59A4.45,4.45,0,0,1,77,16.41Z"/><path class="cls-1" d="M71.62,15.29,43.52,39.56a5.63,5.63,0,0,1-7,0L8.38,15.29a1.48,1.48,0,1,0-1.94,2.24L34.55,41.8a8.61,8.61,0,0,0,10.91,0L73.56,17.53a1.48,1.48,0,1,0-1.94-2.24Z"/></svg>