<svg id="Слой_1" data-name="Слой 1" xmlns="http://www.w3.org/2000/svg" viewBox="0 0 80 80"><defs><style>.cls-1{fill:#424242;}</style></defs><title>food</title><path class="cls-1" d="M41.48,71.11A25.18,25.18,0,1,1,66.67,45.93,25.21,25.21,0,0,1,41.48,71.11Zm0-47.41A22.22,22.22,0,1,0,63.7,45.93,22.25,22.25,0,0,0,41.48,23.7Z"/><path class="cls-1" d="M41.48,63.7A17.66,17.66,0,0,1,28.91,58.5,1.48,1.48,0,0,1,31,56.4,14.82,14.82,0,1,0,51.1,34.66,1.48,1.48,0,1,1,53,32.41,17.78,17.78,0,0,1,41.48,63.7Z"/><path class="cls-1" d="M25.18,47.41a1.48,1.48,0,0,1-1.48-1.48A17.8,17.8,0,0,1,41.48,28.15a1.48,1.48,0,0,1,0,3A14.83,14.83,0,0,0,26.67,45.93,1.48,1.48,0,0,1,25.18,47.41Z"/><path class="cls-1" d="M8.89,26.67a13.5,13.5,0,0,1-4.79-1.48l-.63-.31A6.78,6.78,0,0,1,0,19.26V4.45a1.48,1.48,0,0,1,3,0V19.26a3.8,3.8,0,0,0,1.83,3l.63.31A11.77,11.77,0,0,0,8.89,23.7a11.77,11.77,0,0,0,3.47-1.17l.63-.31a3.8,3.8,0,0,0,1.83-3V4.45a1.48,1.48,0,0,1,3,0V19.26a6.78,6.78,0,0,1-3.47,5.61l-.63.31A13.5,13.5,0,0,1,8.89,26.67Z"/><path class="cls-1" d="M8.89,26.67a1.48,1.48,0,0,1-1.48-1.48V4.45a1.48,1.48,0,0,1,3,0V25.19A1.48,1.48,0,0,1,8.89,26.67Z"/><path class="cls-1" d="M8.89,80C6.47,80,3,76.31,3,69.63,3,65.58,4.2,59.19,5.4,53c1-5.33,2-10.36,2-13V26.67a1.48,1.48,0,0,1,3,0V40c0,1,.71,4.83,1.46,8.87,1.33,7.16,3,16.08,3,20.76C14.81,76.31,11.31,80,8.89,80ZM9,49.92c-.22,1.19-.46,2.42-.7,3.66-1.17,6-2.38,12.28-2.38,16,0,5.09,2.39,7.3,3,7.41.54-.1,2.93-2.31,2.93-7.41C11.85,65.34,10.24,56.54,9,49.92Z"/><path class="cls-1" d="M75.55,80c-3.58,0-7.41-1.95-7.41-7.41A42.91,42.91,0,0,1,68.83,66a51.78,51.78,0,0,0,.8-8.25V49a3.22,3.22,0,0,1,.7-2.42,4.45,4.45,0,0,1,1.56-1.24c-1.44-2.48-3.74-8.11-3.74-18.69C68.15,2.41,77.8.12,78.22,0A1.48,1.48,0,0,1,80,1.48V74.07C80,76.12,79.07,80,75.55,80ZM77,47.41c-3.17,0-4.11.72-4.32.95a.41.41,0,0,0-.15.28c.09.19,0,0,0,.26v8.89a55,55,0,0,1-.84,8.71,40.67,40.67,0,0,0-.64,6.11c0,3.67,2.42,4.44,4.44,4.44C77,77,77,74.1,77,74.07ZM77,4.09c-2.28,2.09-5.93,7.75-5.93,22.58,0,11.56,2.87,16.59,3.77,17.89A18.94,18.94,0,0,1,77,44.44Z"/></svg>