<svg id="Слой_1" data-name="Слой 1" xmlns="http://www.w3.org/2000/svg" viewBox="0 0 80 80"><defs><style>.cls-1{fill:#424242;}</style></defs><title>globe2</title><path class="cls-1" d="M40,0A40,40,0,1,0,80,40,40,40,0,0,0,40,0ZM69.49,62.38A36.73,36.73,0,0,0,59.37,57.3a70.8,70.8,0,0,0,2-15.82H77A36.83,36.83,0,0,1,69.49,62.38ZM3,41.48H18.62a70.8,70.8,0,0,0,2,15.82,36.73,36.73,0,0,0-10.12,5.08A36.83,36.83,0,0,1,3,41.48Zm7.44-23.76A36.6,36.6,0,0,0,20.6,22.84a70.88,70.88,0,0,0-2,15.68H3A36.83,36.83,0,0,1,10.44,17.72Zm31,8.08a61.37,61.37,0,0,0,15-2.07,66.74,66.74,0,0,1,1.93,14.79H41.48Zm0-3V3.1C47.42,4.1,52.66,11,55.7,20.86A58.14,58.14,0,0,1,41.48,22.83Zm-3-19.74V22.83a58,58,0,0,1-14.21-2C27.34,11,32.58,4.1,38.52,3.1Zm0,22.7V38.52H21.58a66.74,66.74,0,0,1,1.93-14.79A61.37,61.37,0,0,0,38.52,25.8ZM21.58,41.48H38.52V54.35a61.44,61.44,0,0,0-15,2.06A66.7,66.7,0,0,1,21.58,41.48ZM38.52,57.31V76.9c-5.91-1-11.13-7.87-14.17-17.63A58.23,58.23,0,0,1,38.52,57.31Zm3,19.59V57.31a58.05,58.05,0,0,1,14.17,2C52.61,69,47.39,75.9,41.48,76.9Zm0-22.55V41.48H58.42a66.7,66.7,0,0,1-2,14.92A61.44,61.44,0,0,0,41.48,54.35Zm19.9-15.83a70.88,70.88,0,0,0-2-15.68,36.6,36.6,0,0,0,10.16-5.12A36.83,36.83,0,0,1,77,38.52Zm6.29-23.09A34.26,34.26,0,0,1,58.61,20c-2-6.73-5.11-12.19-8.83-15.68A37.09,37.09,0,0,1,67.68,15.42ZM30.22,4.28c-3.72,3.49-6.78,8.94-8.82,15.66a34.77,34.77,0,0,1-9.07-4.53A37.09,37.09,0,0,1,30.22,4.28ZM12.4,64.67a34.47,34.47,0,0,1,9-4.49c2,6.67,5.09,12.07,8.79,15.54A37.09,37.09,0,0,1,12.4,64.67ZM49.78,75.72c3.69-3.47,6.74-8.86,8.78-15.53a35,35,0,0,1,9,4.48A37.09,37.09,0,0,1,49.78,75.72Z"/></svg>