<svg id="Слой_1" data-name="Слой 1" xmlns="http://www.w3.org/2000/svg" viewBox="0 0 80 80"><defs><style>.cls-1{fill:#424242;}</style></defs><title>Монтажная область 1</title><path class="cls-1" d="M40,0A40,40,0,1,0,80,40,40,40,0,0,0,40,0ZM76.5,33.16a1.53,1.53,0,0,0-.24.62c-.13,2.29-2.43,5.67-3.8,7.7l-.49.71c-1.08,1.63-1.57,4.31-2,6.68a23.26,23.26,0,0,1-.75,3.32,10.66,10.66,0,0,1-1.66,2.68,10,10,0,0,1,.34-1c.76-1.84-.37-3.49-1.2-4.7A6.3,6.3,0,0,1,66,47.94c0-.08-2.73-8-4.53-8.48-.26-.07-5.74-.92-7.59-.31a6.11,6.11,0,0,1-4.72-.92c-.53-.46-1.23-2.19-1.6-7.86l0-.5c0-.38.26-.68,1.1-1.34a5.17,5.17,0,0,0,1.6-1.73l.16-.33a3.7,3.7,0,0,1,.57-1,4.57,4.57,0,0,0,3.16-.59c.63-.14,1.43.21,2.64.78A13.68,13.68,0,0,0,61,27.09a7.21,7.21,0,0,0,4.47-.47A17.36,17.36,0,0,1,68,25.79c2.16-.53,2.78-1.66,2.92-2.52.38-2.28-2.4-4.1-2.42-4.11-1.16-.75-2.4-.07-3.48.54a8.19,8.19,0,0,1-1.42.69c-.29.08-.36.07-1.07-.2a13.18,13.18,0,0,0-2.94-.83c-.86-.14-.9-.26-1.05-.84a2.85,2.85,0,0,0-1.29-1.91,1.94,1.94,0,0,0-1.6-.23,2,2,0,0,0-1.2,1.21,1,1,0,0,1-.84.71,10.7,10.7,0,0,0-1.95.79,2.15,2.15,0,0,1-1.85.27c.2-.24.44-.5.62-.69L51,18a29.62,29.62,0,0,0,4.56-7.36,2.76,2.76,0,0,0-.38-3c-1.07-1.13-2.86-.84-4.63-.35-.9.25-.95.22-1.51-.11a8.56,8.56,0,0,0-2.25-1c-.85-.25-.85-.8-.85-2.78v0A37.8,37.8,0,0,1,76.5,33.16ZM30.33,4.25c1,2.23,2.11,5.79,1.43,7a1.7,1.7,0,0,0-.08,1.47,3.51,3.51,0,0,0-2.66.79c-3.65,3.38-10.84,11.74-11.18,14.71,0,.08,0,.16,0,.23a6.87,6.87,0,0,0-3.25-2.83,3.55,3.55,0,0,0-3,.35,6.75,6.75,0,0,0-2.9,6.78,3.26,3.26,0,0,0,2.38,2.91,4.32,4.32,0,0,0,2.72-.37,8.71,8.71,0,0,0,.45,1.88,7.37,7.37,0,0,1,.38,2.14,19.31,19.31,0,0,1-4.85-2.28,4.8,4.8,0,0,1-1.15-2.44A5,5,0,0,0,7.34,32c-.54-.77-1.08-5.23-.9-7.47,0,0,0-.09,0-.13A37.19,37.19,0,0,1,30.33,4.25ZM3,40a37,37,0,0,1,1-8.73,5.51,5.51,0,0,0,1.3,2.87,5.11,5.11,0,0,1,.43,1.25,7.35,7.35,0,0,0,2.07,3.91c1.84,1.6,6.59,3.12,7.55,3.42a29.33,29.33,0,0,0-.69,6.22c.15,2.17,2.16,5.88,6.23,8.9,2.1,1.56,1.93,3.33,1.74,5.39a12.49,12.49,0,0,0-.09,2.07,21.5,21.5,0,0,0,2,6.15c.44,1,.85,2,1.11,2.72v0A37.09,37.09,0,0,1,3,40ZM28.34,72.74c-.28-.76-.65-1.61-1-2.49a20.56,20.56,0,0,1-1.79-5.18,10.58,10.58,0,0,1,.08-1.58c.21-2.19.52-5.5-2.92-8.05s-5-5.42-5-6.72a24.56,24.56,0,0,1,.78-6,13.64,13.64,0,0,0,4.3-2.25,1.37,1.37,0,0,1,.82-.18,8,8,0,0,1,4.88,2.25c2.83,2.61,5.45,4.85,8.92,5.69a22.11,22.11,0,0,0,3,.47,6.81,6.81,0,0,1,1.44.22.81.81,0,0,1,0,.17,3.07,3.07,0,0,1-.42.49,6.39,6.39,0,0,0-1.26,1.73c-.16.35-.41,1-.85,2.22C38.13,56.75,35,65.25,32.9,66.73c-.7.49-1.29.85-1.77,1.15C29.21,69.05,28.14,69.86,28.34,72.74ZM40,77a37,37,0,0,1-8.49-1c0-.44-.07-1.49-.22-3.5-.09-1.24-.09-1.24,1.39-2.15.53-.33,1.17-.72,1.92-1.25,2.65-1.86,5.25-8.5,7.48-14.58.36-1,.62-1.69.75-2a3.63,3.63,0,0,1,.72-.94,3.33,3.33,0,0,0,1.09-3.49c-.56-2-2.38-2.22-4-2.38a19.27,19.27,0,0,1-2.63-.4c-2.78-.67-5-2.57-7.6-5a11,11,0,0,0-6.89-3,4.1,4.1,0,0,0-2.8.94,10.76,10.76,0,0,1-3.17,1.61A10.55,10.55,0,0,0,17,36.23a4.52,4.52,0,0,1-.33-1.84,2.31,2.31,0,0,0-.83-2,2.41,2.41,0,0,0-2.89,0,2.22,2.22,0,0,1-1.22.4,2.91,2.91,0,0,1-.17-1.69,3.49,3.49,0,0,1,1.49-2.57.6.6,0,0,1,.55-.08c.91.29,2,2,2.52,3.14l.37.85.93,0c.12,0,2.86.06,3.32-3.9.22-1.5,5.86-8.8,10.16-12.81a5.89,5.89,0,0,1,1.57,0,3.73,3.73,0,0,0,2.19-.27l.59-.41.15-.6a2.85,2.85,0,0,0-.66-2.18l-.14-.22c.89-2.61-.54-6.56-1.36-8.47A37.07,37.07,0,0,1,40,3c.93,0,1.84,0,2.75.11,0,.08,0,.15,0,.24-.06,1.55-.18,4.77,3.08,5.73a7,7,0,0,1,1.71.76,4.09,4.09,0,0,0,3.78.4,10.31,10.31,0,0,1,1.35-.29,27.73,27.73,0,0,1-3.92,6.18l-.51.56c-1,1.07-2.12,2.27-1.69,3.71a2.78,2.78,0,0,0,2.22,1.79A5.1,5.1,0,0,0,53,21.74a8,8,0,0,1,1.45-.59A4.36,4.36,0,0,0,56,20.32a3.82,3.82,0,0,0,3.07,2,10.27,10.27,0,0,1,2.34.66,4.14,4.14,0,0,0,3,.28,10.3,10.3,0,0,0,2-.94c.22-.12.52-.29.74-.4a3.84,3.84,0,0,1,.71.8,3.09,3.09,0,0,1-.63.21,20.12,20.12,0,0,0-2.94,1,4.49,4.49,0,0,1-3,.28A11.11,11.11,0,0,1,58,23c-1.58-.75-3.21-1.52-5-.85l-.4.22a1.64,1.64,0,0,1-1.1.2c-2.32-.41-3.26,1.58-3.76,2.65l-.15.31a4.39,4.39,0,0,1-.77.69c-.94.74-2.36,1.86-2.22,3.87l0,.48c.27,4.2.77,8.3,2.61,9.9A9,9,0,0,0,54.78,42a26.12,26.12,0,0,1,5.49.3,52.6,52.6,0,0,1,2.87,6.54,7.73,7.73,0,0,0,1.13,2.06c.42.61,1.06,1.54.91,1.89s-1.45,3.6-.63,5.34a2,2,0,0,0,1.21,1.09,1.63,1.63,0,0,0,.5.08c2.27,0,5.1-4.34,5.74-6a24.54,24.54,0,0,0,.89-3.83c.36-2,.81-4.46,1.55-5.58l.46-.69c.65-1,1.42-2.12,2.14-3.35,0,.08,0,.15,0,.23A37.08,37.08,0,0,1,40,77Z"/></svg>