<svg id="Слой_1" data-name="Слой 1" xmlns="http://www.w3.org/2000/svg" viewBox="0 0 80 80"><defs><style>.cls-1{fill:#424242;}</style></defs><title>group</title><path class="cls-1" d="M76.48,53.74a3.62,3.62,0,0,0,2.68-.79A2.91,2.91,0,0,0,80,50.75c0-1.08-.1-1.67-1-4.6s-5.49-8.53-10.88-10.88L65.64,34a15.06,15.06,0,0,1-.25-2.22,11.11,11.11,0,0,0,1.7-2.22l.57-.91a20.21,20.21,0,0,0,1.75-3.18,3.47,3.47,0,0,0,1.38-1.37c1.09-2,1.93-5.58,1.36-7.19a2.37,2.37,0,0,0-1.07-1.28c-.1-6.26-3-11.07-7.74-13a34.77,34.77,0,0,0-4.68-1.64L57.85.81A7.06,7.06,0,0,0,56.22.45a1.49,1.49,0,0,0-.45,0,4.46,4.46,0,0,0-3.11,2A3.91,3.91,0,0,0,49.72,5.4a1.55,1.55,0,0,0-.08.48,13.43,13.43,0,0,0-2.76,5.45A1.46,1.46,0,0,0,48,13.11,1.51,1.51,0,0,0,49.76,12a10.13,10.13,0,0,1,3-5.23,1.76,1.76,0,0,0,.45-1.7c.12,0,.25-.38.37-.38h0c.79,0,1.44-.19,1.55-.94,0-.29.54-.2.95-.31a4.28,4.28,0,0,1,.81.21l.93.28A32,32,0,0,1,62.2,5.44c4,1.57,6.11,5.68,5.91,11.28a1.55,1.55,0,0,0,.46,1.08,1.58,1.58,0,0,0,.82.44,11.25,11.25,0,0,1-1.19,4.48c-.05.1-.15.17-.12.17a1.49,1.49,0,0,0-1.19,1,15.84,15.84,0,0,1-1.72,3.25l-.61,1A7.08,7.08,0,0,1,63,30a1.48,1.48,0,0,0-.57,1.18,17.76,17.76,0,0,0,.52,4.28,1.51,1.51,0,0,0,.79.94L66.94,38c4.68,2,8.74,7,9.35,9,.86,2.82,1,3.11,1,3.74v0a10.22,10.22,0,0,1-1.42,0l-1.1,0H53.5a1.49,1.49,0,0,0,0,3Z"/><path class="cls-1" d="M26.75,53.74a1.49,1.49,0,1,0,0-3H4.9l-1,0c-.3,0-.94,0-.94,0v-.09A15.44,15.44,0,0,1,3.57,47c.61-2.36,6-7.22,10.62-9a6.69,6.69,0,0,0,3.13-2.18,1.47,1.47,0,0,0,.22-.49,21.67,21.67,0,0,0,.47-4A1.49,1.49,0,0,0,17.38,30a6.4,6.4,0,0,1-1.74-2l-.57-.9a15.34,15.34,0,0,1-1.72-3.28,1.33,1.33,0,0,0-1.24-1,.44.44,0,0,1-.17-.17,11.31,11.31,0,0,1-1.19-4.45,1.49,1.49,0,0,0,1.41-1.54C12,12.42,13.2,9,15.62,6.93a1.48,1.48,0,0,0,.44-1.56,1.36,1.36,0,0,1,.37-.12l.22,0A1.43,1.43,0,0,0,18.16,4a1.8,1.8,0,0,1,.62-.47l.63.1a8.33,8.33,0,0,1,1.26.27,31,31,0,0,1,4.27,1.51,8.81,8.81,0,0,1,5.12,5.77,1.49,1.49,0,0,0,2.83-.91,11.81,11.81,0,0,0-6.8-7.6,33.69,33.69,0,0,0-4.62-1.64A11,11,0,0,0,19.84.72L18.93.57a1.47,1.47,0,0,0-.56,0,4.69,4.69,0,0,0-2.68,1.82,4.11,4.11,0,0,0-3.13,3,1.58,1.58,0,0,0-.08.48,14.73,14.73,0,0,0-3.3,9.7A2.36,2.36,0,0,0,8,16.94c-.57,1.6.26,5.17,1.36,7.18a3.41,3.41,0,0,0,1.5,1.42,19.91,19.91,0,0,0,1.73,3.16l.54.85A10.17,10.17,0,0,0,15,31.93a18.65,18.65,0,0,1-.28,2.35,4.61,4.61,0,0,1-1.58.93c-5.37,2-11.54,7.47-12.46,11A17.38,17.38,0,0,0,0,50.76,3,3,0,0,0,.83,53a3.24,3.24,0,0,0,2.42.73Z"/><path class="cls-1" d="M67,79c2.7,0,4.07-1.11,4.07-3.39,0-1.32-.12-2.06-1.23-5.71-1.29-4.25-12.6-11.19-18-13.54l-3.32-1.64a19.58,19.58,0,0,1-.37-3.24,13.4,13.4,0,0,0,2.22-2.85c.25-.4.49-.79.73-1.16a24.88,24.88,0,0,0,2.24-4.1,4,4,0,0,0,1.71-1.65c1.35-2.47,2.38-6.84,1.7-8.78A2.61,2.61,0,0,0,55.4,31.4c-.06-7.88-3.6-13.93-9.57-16.29A43.49,43.49,0,0,0,40,13.05a5.31,5.31,0,0,1-1.63-.77,1.49,1.49,0,0,0-1.76-1.22c-1.18.24-2.19,1.77-2.58,2.74a4.65,4.65,0,0,0-.28,1c-2,.32-4,1.34-4.59,3.46a1.58,1.58,0,0,0-.09.65c-2.13,2.42-4.15,6.32-4.19,12.4a2.61,2.61,0,0,0-1.54,1.59c-.69,1.93.35,6.3,1.7,8.78a3.9,3.9,0,0,0,1.86,1.7,24.37,24.37,0,0,0,2.21,4.07l.69,1.1a12.26,12.26,0,0,0,2.49,3,23.52,23.52,0,0,1-.4,3.34,6,6,0,0,1-2.22,1.36c-5,1.86-18,8.66-19.3,13.66-.89,3.43-1.24,5.11-1.26,5.18a1.39,1.39,0,0,0,0,.29C9,79,12.45,79,13.57,79Zm1.07-3a2.61,2.61,0,0,1-1.07.12l-1,0-1.2,0H13.57c-1.21,0-1.47-.15-1.51-.19a.67.67,0,0,1-.06-.28c.11-.5.48-2.12,1.19-4.88S24,61.59,30.66,59.08a8.06,8.06,0,0,0,3.77-2.61,1.49,1.49,0,0,0,.22-.49,27.12,27.12,0,0,0,.59-5,1.49,1.49,0,0,0-.64-1.26A8.46,8.46,0,0,1,32.29,47c-.24-.4-.48-.77-.72-1.14a19.74,19.74,0,0,1-2.21-4.22,1.44,1.44,0,0,0-1.32-1,.89.89,0,0,1-.45-.4,13.53,13.53,0,0,1-1.53-6.21h.23a1.42,1.42,0,0,0,1.1-.44,1.49,1.49,0,0,0,.43-1.1c-.26-7,2.31-10.78,4.51-12.7a1.49,1.49,0,0,0,.42-1.63,5.91,5.91,0,0,1,2.51-.51h0A1.48,1.48,0,0,0,36.64,17a1.42,1.42,0,0,0,0-1.61,1.24,1.24,0,0,1,.16-.61,7.45,7.45,0,0,0,2.37,1.11,40.72,40.72,0,0,1,5.52,1.93c5.18,2.05,8,7.4,7.73,14.66a1.49,1.49,0,0,0,1.46,1.54H54a13.53,13.53,0,0,1-1.54,6.22,1,1,0,0,1-.44.42,1.49,1.49,0,0,0-1.19,1,20.32,20.32,0,0,1-2.22,4.19c-.25.4-.51.8-.76,1.22a9.3,9.3,0,0,1-2.09,2.55,1.49,1.49,0,0,0-.58,1.19,22.15,22.15,0,0,0,.64,5.32,1.49,1.49,0,0,0,.78.94l4,2c6.64,2.9,15.67,9.36,16.39,11.71,1,3.46,1.1,3.95,1.1,4.85A3.36,3.36,0,0,1,68.09,76Z"/></svg>