<svg id="Слой_1" data-name="Слой 1" xmlns="http://www.w3.org/2000/svg" viewBox="0 0 80 80"><defs><style>.cls-1{fill:#424242;}</style></defs><title>list</title><path class="cls-1" d="M65.59,10.37H55.22a1.32,1.32,0,0,0-.22,0,3.83,3.83,0,0,0-3.49-3,3,3,0,0,1-1.95-1.82l-.76-1.91A6.24,6.24,0,0,0,43.37,0H38.93a6.24,6.24,0,0,0-5.44,3.68l-.76,1.9a3,3,0,0,1-1.95,1.82,3.83,3.83,0,0,0-3.49,3,1.32,1.32,0,0,0-.22,0H15.22a7.42,7.42,0,0,0-7.41,7.41V72.59A7.42,7.42,0,0,0,15.22,80H65.59A7.42,7.42,0,0,0,73,72.59V17.78A7.42,7.42,0,0,0,65.59,10.37ZM30,11.85c0-.9.49-1.48.74-1.48,1.84,0,3.86-1.58,4.7-3.68l.76-1.9A3.27,3.27,0,0,1,38.93,3h4.44a3.27,3.27,0,0,1,2.69,1.82l.76,1.91a6.21,6.21,0,0,0,.35.72H44.85a1.48,1.48,0,0,0,0,3h5.93a1.46,1.46,0,0,0,.25-.05,3.53,3.53,0,0,0,.49.05c.25,0,.74.58.74,1.48v1.48a1.48,1.48,0,0,1-1.48,1.48H31.52A1.48,1.48,0,0,1,30,13.33ZM70,72.59A4.45,4.45,0,0,1,65.59,77H15.22a4.45,4.45,0,0,1-4.44-4.44V17.78a4.45,4.45,0,0,1,4.44-4.44H27.07a4.45,4.45,0,0,0,4.44,4.44H50.78a4.45,4.45,0,0,0,4.44-4.44H65.59A4.45,4.45,0,0,1,70,17.78Z"/><path class="cls-1" d="M37.44,37A1.48,1.48,0,0,0,36,38.52v3H24.11V29.63H33a1.48,1.48,0,0,0,0-3H22.63a1.48,1.48,0,0,0-1.48,1.48V43a1.48,1.48,0,0,0,1.48,1.48H37.44A1.48,1.48,0,0,0,38.93,43V38.52A1.48,1.48,0,0,0,37.44,37Z"/><path class="cls-1" d="M40.77,25.71l-8.59,9.92-4.06-4a1.48,1.48,0,0,0-2.09,0,1.59,1.59,0,0,0,0,2.19l5.19,5.37c.28.28.66.74,1.05.74h.05c.55,0,1.15-.85,1.46-1.2L43,27.64a1.48,1.48,0,1,0-2.24-1.93Z"/><path class="cls-1" d="M58.19,35.56H49.3a1.48,1.48,0,1,0,0,3h8.89a1.48,1.48,0,0,0,0-3Z"/><path class="cls-1" d="M37.44,51.85H22.63a1.48,1.48,0,0,0-1.48,1.48V68.15a1.48,1.48,0,0,0,1.48,1.48H37.44a1.48,1.48,0,0,0,1.48-1.48V53.33A1.48,1.48,0,0,0,37.44,51.85ZM36,66.67H24.11V54.81H36Z"/><path class="cls-1" d="M58.19,59.26H49.3a1.48,1.48,0,1,0,0,3h8.89a1.48,1.48,0,0,0,0-3Z"/></svg>