<svg id="Слой_1" data-name="Слой 1" xmlns="http://www.w3.org/2000/svg" viewBox="0 0 80 80"><defs><style>.cls-1{fill:#424242;}</style></defs><title>man</title><path class="cls-1" d="M71.51,79.49c1.11,0,4.49.06,4.49-3.68,0-1.52-.14-2.36-1.43-6.6C73.15,64.52,60.2,56.38,53.69,53.54l-4-2a23.37,23.37,0,0,1-.47-4.11,15.08,15.08,0,0,0,2.64-3.37c.29-.47.57-.92.86-1.36a28.58,28.58,0,0,0,2.64-4.85,4.33,4.33,0,0,0,2-1.85c1.69-3.1,2.66-8.07,2-10a2.79,2.79,0,0,0-1.63-1.69c0-9.19-4.1-16.24-11-19a50.59,50.59,0,0,0-6.82-2.39,4.29,4.29,0,0,1-2.12-1.13A1.45,1.45,0,0,0,36,.6c-1.27.25-2.37,1.95-2.81,3a5,5,0,0,0-.34,1.32c-2.35.32-4.68,1.46-5.35,3.88a1.54,1.54,0,0,0-.07.77C24.89,12.41,22.5,17,22.49,24.21A2.8,2.8,0,0,0,20.67,26c-.7,2,.28,6.93,2,10a4.25,4.25,0,0,0,2.14,1.9,27.49,27.49,0,0,0,2.61,4.83c.26.42.53.84.81,1.28a13.87,13.87,0,0,0,3,3.58,27.63,27.63,0,0,1-.5,4.18,7.21,7.21,0,0,1-2.76,1.72C21,56.06,6.87,64,5.5,69.27c-1,4-1.45,6-1.47,6a1.49,1.49,0,0,0,0,.3c0,3.9,3.67,3.88,5,3.88ZM38.45,67.35l-2.41-6,4-2,4,2-2,5.1h-.47a1.45,1.45,0,1,0,0,2.9h.4l2.42,7.25H35.73l2.75-8.24A1.46,1.46,0,0,0,38.45,67.35Zm33.06,9.3-1.12,0c-.45,0-.92,0-1.39,0H47.23a1.42,1.42,0,0,0-.06-.46l-2.73-8.2,2.7-6.76a1.45,1.45,0,0,0-.7-1.84l-5.8-2.9a1.45,1.45,0,0,0-1.3,0l-5.8,2.9a1.45,1.45,0,0,0-.7,1.84l2.7,6.76-2.73,8.2a1.42,1.42,0,0,0-.06.46H9c-2,0-2.14-.25-2.15-.85s.54-2.45,1.4-5.77S20.85,59.22,28.91,56.2a9.13,9.13,0,0,0,4.27-2.95,1.47,1.47,0,0,0,.22-.48,30.85,30.85,0,0,0,.68-5.84,1.45,1.45,0,0,0-.62-1.23,10.14,10.14,0,0,1-2.79-3.2c-.28-.46-.56-.89-.83-1.32a23.2,23.2,0,0,1-2.61-5,1.53,1.53,0,0,0-1.31-.93,1.15,1.15,0,0,1-.73-.57C23.72,32,23.09,28,23.36,27.17a1.63,1.63,0,0,0,.54.12h0A1.73,1.73,0,0,0,25,26.67a1.93,1.93,0,0,0,.42-1.27c-.31-8.32,2.76-12.79,5.38-15.08a1.45,1.45,0,0,0,.37-1.69l-.05-.11a6.9,6.9,0,0,1,3.33-.78,1.48,1.48,0,0,0,1.31-.67,1.45,1.45,0,0,0,0-1.6,2,2,0,0,1,.37-1.23,8.09,8.09,0,0,0,3,1.46A47.82,47.82,0,0,1,45.51,8c6.18,2.45,9.54,8.8,9.22,17.43a1.45,1.45,0,0,0,1.42,1.5c.27,0,.4.06.4,0,.31.88-.32,5-1.78,7.68a1.33,1.33,0,0,1-.73.63,1.45,1.45,0,0,0-1.16.93,24.38,24.38,0,0,1-2.63,5c-.29.46-.59.92-.89,1.41a11,11,0,0,1-2.52,3.06,1.45,1.45,0,0,0-.56,1.16A25.57,25.57,0,0,0,47,52.94a1.45,1.45,0,0,0,.76.92l4.68,2.31c8,3.48,18.46,11,19.33,13.88,1.24,4.08,1.3,4.67,1.3,5.76C73.1,76.47,73.1,76.65,71.51,76.65Z"/></svg>