<svg id="Слой_1" data-name="Слой 1" xmlns="http://www.w3.org/2000/svg" viewBox="0 0 80 80"><defs><style>.cls-1{fill:#424242;}</style></defs><title>map</title><path class="cls-1" d="M38.4,61.7a1.48,1.48,0,0,0,1.1.49,1.4,1.4,0,0,0,1.11-.5c.51-.58,12.55-14.37,19.2-29.6A22.15,22.15,0,0,0,62,22.46a22.59,22.59,0,0,0-45.18,0A22,22,0,0,0,19,32C25.65,47.32,37.88,61.12,38.4,61.7ZM39.42,3A19.58,19.58,0,0,1,59.05,22.46a19.28,19.28,0,0,1-1.93,8.4C51.79,43.06,42.64,54.63,39.49,58.43,36.3,54.63,27,43.06,21.67,30.81a19.15,19.15,0,0,1-1.88-8.35A19.59,19.59,0,0,1,39.42,3Z"/><path class="cls-1" d="M39.42,32.92A10.72,10.72,0,1,0,28.71,22.21,10.73,10.73,0,0,0,39.42,32.92Zm0-18.47a7.75,7.75,0,1,1-7.75,7.75A7.76,7.76,0,0,1,39.42,14.45Z"/><path class="cls-1" d="M78,78.11,69.07,44a1.48,1.48,0,0,0-.88-1l-7.4-3-1.1,2.75,6.71,2.68L74.26,75.7,59.41,68.27a1.48,1.48,0,0,0-1.28,0L39.5,76.85l-18.63-8.6a1.49,1.49,0,0,0-1.28,0L4.74,75.7l7.87-30.18,6.71-2.68-1.1-2.75-7.4,3a1.48,1.48,0,0,0-.88,1L1,78.11a1.48,1.48,0,0,0,2.1,1.7l17.13-8.57,18.6,8.59a1.49,1.49,0,0,0,1.24,0l18.6-8.59L75.86,79.8a1.48,1.48,0,0,0,2.1-1.7Z"/></svg>