<svg id="Слой_1" data-name="Слой 1" xmlns="http://www.w3.org/2000/svg" viewBox="0 0 80 80"><defs><style>.cls-1{fill:#424242;}</style></defs><title>microphone</title><path class="cls-1" d="M40.37,57.78c9.8,0,17.78-8.64,17.78-19.26V19.26C58.15,8.64,50.17,0,40.37,0S22.59,8.64,22.59,19.26V38.52C22.59,49.14,30.57,57.78,40.37,57.78ZM25.56,19.26c0-9,6.65-16.3,14.81-16.3s14.81,7.31,14.81,16.3V38.52c0,9-6.65,16.3-14.81,16.3S25.56,47.5,25.56,38.52Z"/><path class="cls-1" d="M68.52,29.63H62.59a1.48,1.48,0,1,0,0,3h1.48v5.46c0,13.9-10.85,25.65-23.7,25.65S16.67,52,16.67,38.05V32.59h1.48a1.48,1.48,0,0,0,0-3H12.22a1.48,1.48,0,1,0,0,3H13.7v5.46c0,15.24,11.17,27.7,25.19,28.54V77H25.56a1.48,1.48,0,1,0,0,3H55.19a1.48,1.48,0,1,0,0-3H41.85V66.59C55.87,65.75,67,53.29,67,38.05V32.59h1.48a1.48,1.48,0,0,0,0-3Z"/><path class="cls-1" d="M50.74,32.59a1.48,1.48,0,1,0,0-3H30a1.48,1.48,0,1,0,0,3Z"/></svg>