<svg id="Слой_1" data-name="Слой 1" xmlns="http://www.w3.org/2000/svg" viewBox="0 0 80 80"><defs><style>.cls-1{fill:#1a171b;}</style></defs><title>networking</title><path class="cls-1" d="M5.43,26.25A1.21,1.21,0,0,0,3.88,27a38.48,38.48,0,0,0,.24,26.68,1.21,1.21,0,0,0,2.27-.86,36.05,36.05,0,0,1-.22-25A1.21,1.21,0,0,0,5.43,26.25Z"/><path class="cls-1" d="M15.24,66.54a1.21,1.21,0,0,0-.17,1.71,4.75,4.75,0,0,1,1.09,3v6.29H2.42V71.29a4.75,4.75,0,0,1,1.09-3,1.21,1.21,0,0,0-1.88-1.54A7.25,7.25,0,0,0,0,71.29v7.5A1.21,1.21,0,0,0,1.21,80H17.37a1.21,1.21,0,0,0,1.21-1.21v-7.5a7.25,7.25,0,0,0-1.64-4.58A1.21,1.21,0,0,0,15.24,66.54Z"/><path class="cls-1" d="M4,61.82a5.25,5.25,0,1,0,5.25-5.25A5.26,5.26,0,0,0,4,61.82ZM9.29,59a2.83,2.83,0,1,1-2.83,2.83A2.83,2.83,0,0,1,9.29,59Z"/><path class="cls-1" d="M15.24,10a1.21,1.21,0,0,0-.17,1.71,4.82,4.82,0,0,1,1.09,3V21H2.42V14.72a4.82,4.82,0,0,1,1.09-3,1.21,1.21,0,0,0-1.88-1.54A7.25,7.25,0,0,0,0,14.72v7.5a1.21,1.21,0,0,0,1.21,1.21H17.37a1.21,1.21,0,0,0,1.21-1.21v-7.5a7.25,7.25,0,0,0-1.64-4.58A1.21,1.21,0,0,0,15.24,10Z"/><path class="cls-1" d="M9.29,10.5A5.25,5.25,0,1,0,4,5.25,5.26,5.26,0,0,0,9.29,10.5Zm0-8.08A2.83,2.83,0,1,1,6.46,5.25,2.83,2.83,0,0,1,9.29,2.42Z"/><path class="cls-1" d="M60,7.24A38.67,38.67,0,0,0,20,7.25a1.21,1.21,0,0,0,.63,2.25,1.19,1.19,0,0,0,.63-.18,36.22,36.22,0,0,1,37.52,0A1.21,1.21,0,1,0,60,7.24Z"/><path class="cls-1" d="M57,71.69a36,36,0,0,1-33.33.36,1.21,1.21,0,1,0-1.1,2.16,38.38,38.38,0,0,0,35.58-.38A1.21,1.21,0,0,0,57,71.69Z"/><path class="cls-1" d="M74,55.1a1.21,1.21,0,0,0,1.58-.67,38.42,38.42,0,0,0,.62-27.23,1.21,1.21,0,0,0-2.29.8,36,36,0,0,1-.58,25.51A1.21,1.21,0,0,0,74,55.1Z"/><path class="cls-1" d="M76.66,66.54a1.21,1.21,0,0,0-.17,1.71,4.75,4.75,0,0,1,1.09,3v6.29H63.84V71.29a4.75,4.75,0,0,1,1.09-3,1.21,1.21,0,0,0-1.87-1.54,7.25,7.25,0,0,0-1.64,4.58v7.5A1.21,1.21,0,0,0,62.63,80H78.79A1.21,1.21,0,0,0,80,78.79v-7.5a7.25,7.25,0,0,0-1.64-4.58A1.21,1.21,0,0,0,76.66,66.54Z"/><path class="cls-1" d="M65.45,61.82a5.25,5.25,0,1,0,5.25-5.25A5.26,5.26,0,0,0,65.45,61.82Zm8.08,0A2.83,2.83,0,1,1,70.71,59,2.83,2.83,0,0,1,73.54,61.82Z"/><path class="cls-1" d="M78.36,10.14a1.21,1.21,0,0,0-1.87,1.54,4.82,4.82,0,0,1,1.09,3V21H63.84V14.72a4.82,4.82,0,0,1,1.09-3,1.21,1.21,0,0,0-1.87-1.54,7.25,7.25,0,0,0-1.64,4.58v7.5a1.21,1.21,0,0,0,1.21,1.21H78.79A1.21,1.21,0,0,0,80,22.22v-7.5A7.25,7.25,0,0,0,78.36,10.14Z"/><path class="cls-1" d="M70.71,10.5a5.25,5.25,0,1,0-5.25-5.25A5.26,5.26,0,0,0,70.71,10.5Zm0-8.08a2.83,2.83,0,1,1-2.83,2.83A2.83,2.83,0,0,1,70.71,2.42Z"/></svg>