<svg id="Слой_1" data-name="Слой 1" xmlns="http://www.w3.org/2000/svg" viewBox="0 0 80 80"><defs><style>.cls-1{fill:#424242;}</style></defs><title>parking</title><path class="cls-1" d="M65.78,4.44H42.07v-3a1.48,1.48,0,1,0-3,0v3H15.41A7.42,7.42,0,0,0,8,11.85V53.33a7.42,7.42,0,0,0,7.41,7.41h23.7V71.11a1.48,1.48,0,0,0,1.48,1.48,11.83,11.83,0,0,1,9,4.44H31.44a12.15,12.15,0,0,1,4.27-3.47,1.48,1.48,0,1,0-1.26-2.68,15.78,15.78,0,0,0-7.05,7A1.48,1.48,0,0,0,28.74,80h23.7a1.48,1.48,0,0,0,1.32-2.16c-.16-.32-3.89-7.32-11.69-8.13v-9h23.7a7.42,7.42,0,0,0,7.41-7.41V11.85A7.42,7.42,0,0,0,65.78,4.44Zm4.44,48.89a4.45,4.45,0,0,1-4.44,4.44H15.41A4.45,4.45,0,0,1,11,53.33V11.85a4.45,4.45,0,0,1,4.44-4.44H65.78a4.45,4.45,0,0,1,4.44,4.44Z"/><path class="cls-1" d="M44.46,19.26H31.7a1.48,1.48,0,0,0-1.48,1.48V45.93a1.48,1.48,0,0,0,3,0V38.52H44.46c4.19,0,9.09-2.52,9.09-9.63C53.56,21.51,47.64,19.36,44.46,19.26Zm0,16.3H33.19V22.22H44.41a6.26,6.26,0,0,1,6.19,6.67C50.59,34.91,46.31,35.56,44.46,35.56Z"/></svg>