<svg id="Слой_1" data-name="Слой 1" xmlns="http://www.w3.org/2000/svg" viewBox="0 0 80 80"><defs><style>.cls-1{fill:#424242;}</style></defs><title>phone</title><path class="cls-1" d="M80,65.7a5.87,5.87,0,0,0-2.86-3.88L59.44,49.74a5.43,5.43,0,0,0-3.07-.95,5.27,5.27,0,0,0-4.28,2.16l-4.58,6.48A3.1,3.1,0,0,0,47,59.15c-1.75.26-6.83.1-15.17-8.23C23.82,42.87,20,37,20.5,33.3a1.57,1.57,0,0,0,.23-.19,3.16,3.16,0,0,0,1.12-.5l6.33-4.79a5.35,5.35,0,0,0,1-7.39L16.51,3.17c-2.43-3.31-5.3-3.66-8.37-1a38.26,38.26,0,0,0-6.5,8.11,6.67,6.67,0,0,0-.91,4A36.21,36.21,0,0,0,.94,29.85C3.25,40.67,9.48,51.07,19.47,60.74,36.18,76.91,50.85,79.32,58.11,79.32h0A23.65,23.65,0,0,0,66.73,78a6.7,6.7,0,0,0,3.76-1,37.7,37.7,0,0,0,7.89-6.77A5.72,5.72,0,0,0,80,65.7Zm-3.89,2.58A35,35,0,0,1,69,74.35a5,5,0,0,1-.83.39c-2-.87-5.56-2.73-6.62-4.06a1.49,1.49,0,1,0-2.33,1.86,15.79,15.79,0,0,0,4.37,3.25,25.78,25.78,0,0,1-5.44.53h0C51.31,76.34,37.5,74,21.55,58.6-1.2,36.57,3.12,16.88,3.69,14.71a1.5,1.5,0,0,0,0-.59,3.67,3.67,0,0,1,.52-2.4,35.66,35.66,0,0,1,5.84-7.3,3.43,3.43,0,0,1,2-1c.23,0,.91,0,2,1.54L26.75,22.18a2.36,2.36,0,0,1-.37,3.26l-6.26,4.75-.11,0A25.87,25.87,0,0,1,15.39,26a1.49,1.49,0,1,0-2.5,1.63,25.11,25.11,0,0,0,4.78,4.6C16.49,37,20.26,43.53,29.77,53c7.58,7.58,13.1,9.17,16.4,9.17a6.62,6.62,0,0,0,3.06-.62A1.49,1.49,0,0,0,50,60.49a6.78,6.78,0,0,0,0-.82c0-.18,0-.49,0-.66l4.48-6.34a2.43,2.43,0,0,1,3.23-.48L75.41,64.28c1,.67,1.51,1.29,1.59,1.85A3.09,3.09,0,0,1,76.06,68.28Z"/><path class="cls-1" d="M38.3,17.58a36.42,36.42,0,0,1,24.15,24,1.49,1.49,0,0,0,1.42,1,1.51,1.51,0,0,0,.44-.07,1.49,1.49,0,0,0,1-1.87,39.39,39.39,0,0,0-26.13-26,1.49,1.49,0,1,0-.87,2.85Z"/><path class="cls-1" d="M40.35,6.53A44.68,44.68,0,0,1,74,42a1.49,1.49,0,0,0,1.47,1.23l.27,0A1.49,1.49,0,0,0,77,41.51,47.67,47.67,0,0,0,41,3.62a1.49,1.49,0,0,0-.69,2.91Z"/></svg>