<svg id="Слой_1" data-name="Слой 1" xmlns="http://www.w3.org/2000/svg" viewBox="0 0 80 80"><defs><style>.cls-1{fill:#1a171b;}</style></defs><title>trainer</title><path class="cls-1" d="M50.88,23.51A6.92,6.92,0,1,0,44,16.59,6.93,6.93,0,0,0,50.88,23.51Zm0-11.42a4.5,4.5,0,1,1-4.5,4.5A4.5,4.5,0,0,1,50.88,12.09Z"/><path class="cls-1" d="M78.59,0H1.21a1.21,1.21,0,0,0,0,2.42H4.84V44.73A1.21,1.21,0,0,0,6,45.94H37.69a1.21,1.21,0,1,0,0-2.42H7.25V2.42H72.54v41.1H66.9V34a7.74,7.74,0,0,0-7.73-7.73H45.38a5.5,5.5,0,0,1-3.91-1.62L30.8,13.95a4.47,4.47,0,0,0-6.32,6.32L40.09,36a4.38,4.38,0,0,1,1.28,3.11V74.49a5.36,5.36,0,0,0,9.5,3.36,5.36,5.36,0,0,0,9.5-3.36V54.84a4.42,4.42,0,0,0,2.06.52,4.47,4.47,0,0,0,4.47-4.47v-5h6.85A1.21,1.21,0,0,0,75,44.73V2.42h3.63a1.21,1.21,0,0,0,0-2.42ZM58,74.49a2.94,2.94,0,0,1-5.87,0V56a1.21,1.21,0,1,0-2.42,0V74.49a2.94,2.94,0,0,1-5.87,0V51.75H58Zm6.53-23.6a2,2,0,0,1-4.1,0V35.09a1.21,1.21,0,1,0-2.42,0V49.33H43.79V39.06a6.78,6.78,0,0,0-2-4.82L26.19,18.56a2.05,2.05,0,0,1,0-2.9,2.1,2.1,0,0,1,2.9,0L39.76,26.33a7.9,7.9,0,0,0,5.62,2.33H59.17A5.31,5.31,0,0,1,64.48,34Z"/><path class="cls-1" d="M50.87,43.56a1.21,1.21,0,1,0,0,2.42h0a1.21,1.21,0,0,0,0-2.42Z"/><path class="cls-1" d="M50.87,37.78A1.21,1.21,0,1,0,52.08,39,1.21,1.21,0,0,0,50.87,37.78Z"/><path class="cls-1" d="M50.89,32a1.21,1.21,0,1,0,1.19,1.21A1.19,1.19,0,0,0,50.89,32Z"/></svg>