<svg id="Слой_1" data-name="Слой 1" xmlns="http://www.w3.org/2000/svg" viewBox="0 0 80 80"><defs><style>.cls-1{fill:#424242;}</style></defs><title>transport</title><path class="cls-1" d="M25.36,44.86a6.72,6.72,0,1,0,6.72,6.72A6.73,6.73,0,0,0,25.36,44.86Zm0,10.47a3.76,3.76,0,1,1,3.76-3.76A3.76,3.76,0,0,1,25.36,55.34Z"/><path class="cls-1" d="M60.61,4.41A67.2,67.2,0,0,0,53,3.3l-1.37-.15a8.51,8.51,0,0,0-7-3.15H36.08A8.65,8.65,0,0,0,29,3.15a84.63,84.63,0,0,0-8.89,1.41c-5.16,1.22-9.37,6.68-9.37,12.18V56.58c0,5.58,4.2,11.11,9.39,12.33a93.48,93.48,0,0,0,20.3,2.25,93.51,93.51,0,0,0,20.32-2.26C65.85,67.7,70,62.17,70,56.58V16.74C70,11.16,65.8,5.63,60.61,4.41ZM67,56.58c0,3.76-2.8,8.46-7,9.44a90,90,0,0,1-39.29,0c-3.84-.91-7.09-5.23-7.09-9.45V29.39A62.47,62.47,0,0,0,20.24,37c.75.79,1.53,1.61,2.34,2.49a6.92,6.92,0,0,0,4.46,2H53.7a6.93,6.93,0,0,0,4.46-2c.84-.91,1.65-1.76,2.42-2.57A61.36,61.36,0,0,0,67,29.42ZM13.71,20.78a2,2,0,0,1,1.14-1.08,173.24,173.24,0,0,1,25.6-2.08,172.05,172.05,0,0,1,25.43,2.06A2.1,2.1,0,0,1,67,20.78c-.27,5.33-3.59,8.83-8.6,14.11-.78.82-1.59,1.68-2.44,2.59a4,4,0,0,1-2.3,1H27a4,4,0,0,1-2.29-1c-.82-.88-1.6-1.71-2.35-2.5C17.33,29.63,14,26.09,13.71,20.78ZM67,16.95a3.46,3.46,0,0,0-.72-.19,174.91,174.91,0,0,0-25.87-2.09,176,176,0,0,0-26,2.11,3.56,3.56,0,0,0-.7.18v-.22c0-4.13,3.25-8.39,7.07-9.29A86.41,86.41,0,0,1,30,6l.72-.08.38-.62a5.58,5.58,0,0,1,5-2.36h8.58a5.4,5.4,0,0,1,4.87,2.35l.38.62.72.08,2.07.22a63.77,63.77,0,0,1,7.26,1C63.79,8.2,67,12.53,67,16.74Z"/><path class="cls-1" d="M55.38,44.86a6.72,6.72,0,1,0,6.72,6.72A6.73,6.73,0,0,0,55.38,44.86Zm0,10.47a3.76,3.76,0,1,1,3.76-3.76A3.76,3.76,0,0,1,55.38,55.34Z"/><path class="cls-1" d="M56.23,73a1.48,1.48,0,0,0-2.09,2.09l4.44,4.44a1.48,1.48,0,0,0,2.09-2.09Z"/><path class="cls-1" d="M24.51,73l-4.44,4.44a1.48,1.48,0,1,0,2.09,2.09l4.44-4.44A1.48,1.48,0,0,0,24.51,73Z"/></svg>